# xmcd CD database file
#
# Track frame offsets:
#	150
#	13804
#	36966
#	58195
#	80556
#	94349
#	118608
#	138305
#	158611
#	177193
#
# Disc length: 2675 seconds
#
# Revision: 0
# Processed by: cddbd v1.5.1PL2 Copyright (c) Steve Scherf et al.
# Submitted via: CDex 1.51
#
DISCID=810a710a
DTITLE=ジャカランタン - Joy?
DYEAR=2005
DGENRE=JPop
TTITLE0=ジョイ
TTITLE1=めまい
TTITLE2=デルタ６９
TTITLE3=気分はシンプル
TTITLE4=時間外小譚
TTITLE5=イリュージョン
TTITLE6=路傍の花
TTITLE7=ライブハウスの犬
TTITLE8=リアル
TTITLE9=ナイトスライダー
EXTD=YEAR: 2005
EXTT0=
EXTT1=
EXTT2=
EXTT3=
EXTT4=
EXTT5=
EXTT6=
EXTT7=
EXTT8=
EXTT9=
PLAYORDER=
